-
 
http://www.Speed. Cd       the fast  and The Hottest Private Tracker on the net 
http://www.Speed. Cd

Please Seed back to make the speed Faster!!
 ............ NFO .............
-
 
http://www.Speed. Cd                                                                                                     
       
     
     
       
       
     
     
                                         
                                         
                EXVID                    
                                         
         
                                         
         Filled the Archives             
                                         
         
                                         
                With:                    
                                         
         
                                         
                                    
     E240                           
                                    
     SP               (C) 2009      
                                         
     
     
     
                                                                                  
                                                                                   
                     Offline.2012.DVDRip.XviD-EXViD                                 
                                                                                   
                                                                                  
     
                                                                                               
EXViD aims to iNTERNAL those releases which have been lost in the archives.
EXViD aims to PRE non-internal releases which have poor sources and are likely skipped by others. 
http://www.imdb.com/title/tt2327453/
Subtitles: EN, FR, NL
Date: 2013.03

Director: Peter Monsaert

Genres: Drama

Plot:
After seven years in prison, Rudy Vandekerckhove has set himself two clear objectives: get
back to work as a washing machine repairman, and  more importantly  become reconciled with
the family he had left behind. But despite the help and support of Denise, a retired hairdresser,
and his friend Rachid, his plans fail. Just when a reunion eventually comes within sight, the
past gets the upper hand again, and Rudy has to take the toughest decision of his life.

Cast:
Wim Willaert 	 ... 	 Rudy 
Anemone Valcke 	 ... 	 Vicky 
Mourade Zeguendi 	 ... 	 Rachid 
Patricia Goemaere 	 ... 	 Carine 
Margriet Bruggeman 	 ... 	 Denise 
Robrecht Vanden Thoren 	 ... 	 David 
Souad Boukhatem 	 ... 	 Naima 
Katelijne Damen 	 ... 	 Chantal 
Peter Gorissen 	 ... 	 Eigenaar wassalon 
Liesa Naert 	 ... 	 Sofie 
Lukas Smolders 	 ... 	 Bange chauffeur 
Dominique Van Malder 	 ... 	 Dikke Patrick

Stats:
Format                           : AVI
Format/Info                      : Audio Video Interleave
File size                        : 701 MiB
Duration                         : 1h 46mn
Overall bit rate                 : 923 Kbps
Writing application              : VirtualDubMod 1.5.10.2 (build 2540/release)
Writing library                  : VirtualDubMod build 2540/release

Video
ID                               : 0
Format                           : MPEG-4 Visual
Format profile                   : Advanced Simple@L5
Format settings, BVOP            : Yes
Format settings, QPel            : No
Format settings, GMC             : No warppoints
Format settings, Matrix          : Default (H.263)
Muxing mode                      : Packed bitstream
Codec ID                         : XVID
Codec ID/Hint                    : XviD
Duration                         : 1h 46mn
Bit rate                         : 791 Kbps
Width                            : 624 pixels
Height                           : 256 pixels
Display aspect ratio             : 2.40:1
Frame rate                       : 25.000 fps
Color space                      : YUV
Chroma subsampling               : 4:2:0
Bit depth                        : 8 bits
Scan type                        : Progressive
Bits/(Pixel*Frame)               : 0.198
Stream size                      : 601 MiB (86%)
Writing library                  : XviD 64

Audio
ID                               : 1
Format                           : MPEG Audio
Format version                   : Version 1
Format profile                   : Layer 3
Mode                             : Joint stereo
Mode extension                   : MS Stereo
Codec ID                         : 55
Codec ID/Hint                    : MP3
Duration                         : 1h 46mn
Bit rate mode                    : Variable
Bit rate                         : 119 Kbps
Minimum bit rate                 : 128 Kbps
Channel(s)                       : 2 channels
Sampling rate                    : 48.0 KHz
Stream size                      : 90.5 MiB (13%)
Alignment                        : Aligned on interleaves
Interleave, duration             : 24 ms (0.60 video frame)
Interleave, preload duration     : 154 ms
Writing library                  : LAME4.0a
Encoding settings                : -m j -V 4 -q 5 -lowpass 17.5 --vbr-old -b 128




Release notes:
enjoy!

Looking for:
75TB+ Archives
DUTCH/FLEMiSH Archives
                                                                                                    
Greets: CRBS EPiSODE FiCO FLS iLS KLASSiGER LiPSYNC MADE NODLABS RUNNER SPRiNTER      
   

                                                                    ASCII DONE BY XX^NFO 2oo9